<?xml version="1.0" standalone="no"?>
<!DOCTYPE svg PUBLIC "-//W3C//DTD SVG 20010904//EN"
 "http://www.w3.org/TR/2001/REC-SVG-20010904/DTD/svg10.dtd">
<svg version="1.0" xmlns="http://www.w3.org/2000/svg"
 width="480.000000pt" height="480.000000pt" viewBox="0 0 480.000000 480.000000"
 preserveAspectRatio="xMidYMid meet">
<metadata>
Created by potrace 1.11, written by Peter Selinger 2001-2013
</metadata>
<g transform="translate(0.000000,480.000000) scale(0.100000,-0.100000)"
fill="#000000" stroke="none">
<path d="M0 2400 l0 -2400 2400 0 2400 0 -2 1348 -3 1347 -25 -3 c-14 -2 -65
-5 -115 -6 -49 -1 -98 -6 -108 -12 -45 -26 -43 -256 3 -402 26 -84 25 -102
-10 -172 -16 -32 -50 -119 -75 -192 -25 -73 -59 -162 -74 -198 -16 -36 -52
-121 -81 -190 -28 -69 -77 -167 -108 -219 -65 -109 -83 -184 -106 -430 -14
-161 -9 -259 19 -361 12 -41 19 -100 19 -160 1 -113 -19 -162 -86 -210 -57
-41 -79 -45 -125 -21 -66 33 -124 124 -149 232 -10 43 -26 77 -51 108 -36 44
-37 46 -44 154 -5 91 -9 113 -24 124 -36 25 -53 15 -170 -97 -90 -87 -121
-105 -331 -188 -235 -94 -255 -97 -629 -97 -348 0 -402 5 -560 57 -49 16 -139
53 -200 82 -109 53 -366 219 -500 324 -104 82 -329 314 -418 431 -90 120 -110
156 -189 351 -177 435 -181 454 -182 890 -1 267 -4 321 -18 351 -19 43 -181
314 -247 414 -128 192 -138 242 -83 405 34 99 136 315 195 411 55 91 238 338
269 364 45 38 75 42 104 14 30 -28 31 -58 5 -211 -23 -132 -45 -417 -37 -463
10 -50 78 -105 130 -105 42 0 56 10 98 74 23 33 89 120 147 191 59 72 129 159
158 195 87 110 153 162 273 214 36 15 112 51 170 79 l105 52 93 -3 c69 -2 111
3 160 17 165 48 255 49 657 10 152 -15 383 -66 475 -105 45 -19 86 -34 91 -34
20 0 275 -115 337 -152 126 -75 197 -122 257 -169 33 -25 70 -51 82 -58 29
-15 77 -14 116 3 41 17 120 87 145 129 25 39 66 189 87 317 19 109 34 140 71
140 61 0 89 -39 225 -311 87 -173 126 -278 148 -402 21 -115 -23 -226 -149
-381 -45 -55 -88 -113 -97 -129 -20 -39 -13 -100 24 -209 28 -81 29 -83 73
-99 45 -17 64 -39 74 -90 5 -24 13 -28 68 -38 82 -14 92 -25 51 -60 -18 -15
-33 -32 -33 -38 0 -6 16 -25 36 -42 28 -26 39 -30 50 -20 17 14 18 82 2 109
-10 16 -10 24 0 40 9 15 12 229 12 960 l0 940 -2400 0 -2400 0 0 -2400z"/>
<path d="M2050 4368 c-69 -22 -134 -49 -146 -60 -54 -49 -58 -198 -5 -198 18
0 241 79 297 106 31 15 56 55 68 111 6 27 3 37 -18 58 -14 14 -35 25 -48 24
-13 0 -79 -18 -148 -41z"/>
<path d="M2370 4369 c-34 -14 -37 -21 -45 -114 -5 -63 -12 -88 -27 -105 -22
-24 -85 -55 -201 -99 -212 -81 -235 -124 -157 -300 22 -51 40 -102 40 -114 0
-12 -14 -40 -32 -61 -53 -65 -215 -192 -292 -230 -64 -32 -82 -36 -147 -36
-89 0 -109 13 -132 87 -8 26 -20 67 -27 90 -7 24 -21 50 -31 59 -17 15 -23 13
-91 -29 -40 -25 -85 -49 -99 -52 -38 -9 -79 15 -109 64 -33 55 -55 53 -111
-11 l-46 -52 -49 19 c-61 23 -232 120 -262 148 -60 55 -66 109 -37 314 10 67
15 129 12 137 -10 24 -37 19 -64 -11 -55 -63 -207 -413 -220 -509 -8 -57 10
-83 81 -118 34 -17 71 -45 93 -73 21 -25 73 -83 115 -127 l77 -82 3 -119 c1
-66 1 -258 -1 -427 -3 -345 3 -420 54 -634 62 -257 134 -433 251 -615 120
-186 324 -391 549 -553 80 -58 377 -210 468 -240 83 -28 348 -75 452 -82 145
-9 345 10 545 50 184 38 282 75 288 110 8 40 -55 46 -203 20 -57 -10 -179 -18
-332 -21 l-242 -5 -43 24 c-176 102 -200 111 -273 111 -38 0 -94 -3 -124 -8
-42 -6 -61 -4 -85 8 -17 8 -61 30 -98 47 -53 24 -74 41 -100 78 -44 66 -75
101 -202 232 -152 156 -189 201 -246 295 -97 161 -148 318 -161 495 -19 272
-21 374 -10 560 11 168 10 193 -4 220 -19 37 -36 38 -117 5 -63 -26 -85 -29
-112 -19 -22 9 -20 52 5 94 29 48 253 268 314 308 68 45 164 74 266 79 73 5
91 2 127 -16 68 -35 92 -90 54 -124 -10 -10 -65 -40 -121 -67 -88 -44 -104
-56 -117 -86 -8 -20 -12 -44 -9 -55 7 -22 164 -199 299 -337 177 -181 353
-315 584 -445 129 -72 163 -87 224 -97 40 -6 102 -20 138 -30 72 -21 221 -44
380 -60 58 -6 141 -18 185 -26 44 -8 170 -17 280 -21 188 -6 202 -5 240 14 22
11 58 26 80 33 159 50 266 104 375 191 115 91 145 121 171 171 10 20 30 49 44
64 22 24 25 36 23 78 -3 43 -6 51 -23 51 -24 0 -49 -74 -40 -122 4 -22 2 -33
-6 -33 -6 0 -32 -15 -58 -33 -103 -74 -288 -180 -323 -184 -28 -4 -43 0 -64
16 -15 11 -36 21 -48 21 -19 -1 -18 -4 12 -29 38 -33 41 -65 7 -87 -14 -9 -78
-30 -142 -46 l-118 -30 -230 11 c-126 5 -261 17 -300 25 -38 8 -113 19 -165
26 -152 19 -200 30 -200 46 0 18 -20 17 335 18 l300 2 90 31 c50 17 132 48
183 68 79 30 101 35 139 29 42 -6 47 -4 69 22 25 31 31 54 13 54 -6 0 -36 18
-68 40 -31 22 -64 40 -72 40 -8 0 -50 -18 -94 -41 -265 -137 -274 -140 -362
-155 -118 -19 -406 -19 -498 0 -97 20 -323 134 -388 195 -143 133 -209 272
-209 441 0 147 88 327 185 376 56 29 54 5 -12 -150 l-61 -145 0 -103 c0 -115
12 -153 77 -241 42 -57 163 -156 233 -192 85 -43 454 -100 490 -76 29 20 13
26 -219 88 -148 39 -278 110 -379 207 -61 58 -89 103 -74 118 14 14 37 5 127
-53 81 -51 221 -123 263 -134 42 -12 23 20 -78 136 -59 67 -113 140 -133 179
-30 61 -32 71 -32 170 1 82 6 121 24 176 13 39 21 79 19 89 -4 22 -117 81
-181 95 -26 5 -98 10 -160 10 -125 0 -157 6 -157 26 0 37 157 88 265 86 158
-2 403 -142 695 -397 58 -50 154 -129 213 -174 60 -46 156 -127 214 -180 140
-128 218 -188 273 -213 25 -11 58 -26 74 -34 56 -27 91 -13 163 66 l32 35 -30
27 c-34 32 -37 65 -9 101 11 14 93 82 183 151 89 70 169 137 176 149 58 92
-77 410 -287 677 -157 198 -474 455 -707 572 -174 88 -295 124 -594 178 -123
21 -326 27 -371 9z m986 -444 c94 -28 370 -221 480 -336 67 -71 151 -183 206
-274 68 -113 160 -312 165 -357 5 -43 3 -47 -41 -91 -26 -25 -67 -55 -92 -67
-41 -20 -46 -21 -68 -6 -28 18 -47 70 -76 211 -24 114 -151 442 -187 486 -13
15 -49 39 -79 53 -31 14 -79 45 -107 68 -226 188 -255 219 -272 296 -8 38 -2
39 71 17z m-710 -51 c21 -15 67 -47 102 -71 39 -28 77 -47 102 -50 49 -7 50 1
9 73 -17 30 -28 58 -24 64 21 34 137 -44 301 -203 69 -67 130 -123 135 -125 5
-2 21 6 35 17 15 12 33 21 40 21 21 0 84 -61 150 -145 32 -41 64 -75 70 -75 6
0 24 19 39 42 28 42 28 42 45 21 9 -12 38 -88 64 -170 26 -81 72 -209 102
-283 67 -165 72 -192 49 -264 -16 -52 -16 -58 -1 -97 22 -54 14 -91 -30 -135
-49 -49 -78 -46 -112 12 -15 25 -63 101 -107 168 -44 67 -104 161 -133 209
-63 103 -139 195 -271 327 -187 187 -353 309 -578 425 -111 57 -133 72 -133
91 0 19 7 24 45 30 50 7 54 17 34 87 -17 63 4 73 67 31z m593 -849 c37 -43 32
-64 -9 -35 -33 23 -80 77 -80 91 0 17 56 -19 89 -56z m-1122 -701 c-3 -3 -12
-4 -19 -1 -8 3 -5 6 6 6 11 1 17 -2 13 -5z m93 -60 c52 -49 58 -74 11 -50 -35
19 -91 71 -91 85 0 23 33 9 80 -35z m-1323 -141 c33 -48 131 -278 174 -406 86
-256 221 -484 399 -670 36 -38 66 -75 68 -83 7 -28 -46 -14 -95 24 -69 56
-222 218 -265 283 -53 80 -210 399 -248 504 -18 50 -46 124 -61 166 -33 89
-44 148 -35 184 9 34 39 33 63 -2z"/>
<path d="M1604 4276 c-138 -60 -199 -101 -224 -152 -11 -22 -20 -51 -20 -65 0
-13 -8 -54 -18 -91 -16 -57 -17 -71 -6 -97 17 -40 63 -101 77 -101 5 0 49 25
97 55 95 60 111 61 135 14 21 -40 21 -207 -1 -237 -27 -39 -59 -28 -142 48
-79 75 -105 83 -110 37 -4 -32 29 -137 58 -184 57 -95 162 -87 316 23 107 76
117 112 58 209 -70 118 -98 254 -93 454 3 106 2 126 -11 128 -8 1 -61 -17
-116 -41z"/>
<path d="M4340 4268 c-5 -13 -19 -59 -30 -104 -36 -146 -58 -179 -167 -243
-75 -45 -93 -60 -93 -81 0 -10 32 -60 72 -111 39 -52 97 -134 129 -184 84
-134 107 -128 231 53 62 91 78 130 78 184 0 100 -85 373 -145 468 -29 45 -60
53 -75 18z"/>
<path d="M1163 3868 c-89 -98 -131 -188 -104 -227 14 -22 47 -4 125 70 86 80
123 140 108 175 -9 19 -19 24 -51 24 -33 0 -44 -6 -78 -42z"/>
<path d="M2705 3066 c-26 -39 -38 -147 -25 -210 11 -56 44 -111 60 -101 5 3
19 33 31 66 17 47 31 66 66 91 23 17 43 39 43 48 0 22 -65 97 -101 115 -39 21
-56 19 -74 -9z"/>
<path d="M2916 2888 c-15 -57 7 -98 52 -98 27 0 55 40 46 66 -20 55 -86 76
-98 32z"/>
<path d="M4555 2890 c-3 -5 1 -10 9 -10 9 0 16 5 16 10 0 6 -4 10 -9 10 -6 0
-13 -4 -16 -10z"/>
<path d="M3085 2685 c-26 -30 -65 -65 -88 -77 -91 -51 -68 -93 71 -126 131
-31 175 -34 260 -22 89 14 112 24 112 48 -1 25 -14 39 -138 140 -140 113 -151
115 -217 37z"/>
<path d="M1265 2656 c-15 -115 8 -753 28 -772 6 -6 72 30 92 51 6 5 37 41 70
80 64 75 103 113 176 172 62 51 82 79 75 107 -3 13 -92 111 -197 219 -218 225
-233 234 -244 143z"/>
<path d="M4298 2656 c-33 -25 -16 -55 54 -99 35 -22 45 -21 58 4 13 24 5 73
-17 94 -18 18 -72 19 -95 1z"/>
<path d="M4208 2443 c-9 -10 -25 -36 -36 -59 -30 -60 -45 -68 -112 -66 -51 2
-59 0 -65 -18 -16 -51 39 -53 146 -6 103 44 139 71 139 102 0 57 -40 83 -72
47z"/>
<path d="M1832 2147 c-33 -40 -91 -504 -77 -617 11 -89 45 -163 69 -154 15 6
24 23 77 153 54 131 174 293 250 338 39 23 46 49 22 82 -36 48 -278 211 -314
211 -9 0 -21 -6 -27 -13z"/>
<path d="M1593 2028 c-47 -44 -123 -150 -162 -225 -28 -56 -46 -178 -33 -225
13 -46 143 -239 199 -295 38 -39 70 -53 85 -38 3 3 -2 34 -11 68 -24 93 -23
522 2 631 9 43 17 89 17 102 0 39 -43 31 -97 -18z"/>
<path d="M4170 1866 c-25 -7 -99 -35 -165 -63 -66 -27 -151 -57 -190 -67 -80
-20 -115 -39 -115 -64 0 -9 13 -60 29 -112 16 -52 35 -129 42 -170 28 -178 51
-240 88 -240 17 0 48 36 158 181 58 76 152 258 212 412 28 70 51 129 51 132 0
9 -65 4 -110 -9z"/>
<path d="M2347 1842 c-21 -23 -21 -40 0 -88 28 -66 33 -111 43 -378 7 -209 12
-262 24 -274 30 -31 62 1 179 180 62 95 136 209 165 253 28 44 62 99 74 122
21 41 21 43 3 62 -20 23 -76 46 -253 102 -138 44 -209 50 -235 21z"/>
<path d="M2188 1732 c-47 -31 -89 -94 -158 -237 -83 -172 -150 -343 -150 -384
0 -40 24 -61 139 -119 156 -79 290 -103 308 -55 3 8 -6 74 -21 147 -15 72 -32
151 -36 176 -19 92 -30 229 -30 358 0 143 -2 147 -52 114z"/>
<path d="M3028 1706 c-24 -18 -22 -56 6 -135 29 -80 34 -120 45 -326 5 -88 12
-168 16 -177 24 -60 92 20 285 341 113 188 143 270 103 286 -63 24 -427 33
-455 11z"/>
<path d="M2854 1422 c-17 -15 -46 -47 -66 -72 -65 -84 -288 -422 -294 -447 -4
-15 -1 -30 8 -39 21 -21 120 -34 277 -37 190 -3 185 -8 177 173 -14 295 -36
451 -63 450 -4 0 -22 -13 -39 -28z"/>
<path d="M3582 1434 c-13 -9 -84 -109 -158 -222 -75 -114 -160 -237 -190 -274
-89 -110 -71 -141 68 -118 159 27 328 102 348 156 15 38 -18 446 -37 465 -5 5
-18 2 -31 -7z"/>
<path d="M3839 941 c-84 -84 -89 -95 -65 -161 13 -34 14 -35 82 -41 44 -3 73
-1 82 6 7 6 16 57 22 117 11 113 4 158 -26 158 -9 0 -52 -35 -95 -79z"/>
<path d="M3921 499 c-15 -42 -14 -171 1 -204 16 -35 54 -43 80 -18 30 31 28
125 -5 197 -31 66 -58 75 -76 25z"/>
</g>
</svg>
